<svg width="471" height="58" viewBox="0 0 471 58" fill="none" xmlns="http://www.w3.org/2000/svg">
<mask id="path-1-outside-1_137_93" maskUnits="userSpaceOnUse" x="0" y="0" width="471" height="58" fill="black">
<rect fill="white" width="471" height="58"/>
<path d="M2.68 57C2.25333 57 1.85333 56.84 1.48 56.52C1.16 56.1467 1 55.7467 1 55.32C1 55.0533 1.02667 54.8133 1.08 54.6L19.88 3.24C20.04 2.65333 20.36 2.14667 20.84 1.72C21.3733 1.24 22.0933 1 23 1H34.84C35.7467 1 36.44 1.24 36.92 1.72C37.4533 2.14667 37.8 2.65333 37.96 3.24L56.68 54.6C56.7867 54.8133 56.84 55.0533 56.84 55.32C56.84 55.7467 56.6533 56.1467 56.28 56.52C55.96 56.84 55.56 57 55.08 57H45.24C44.44 57 43.8267 56.8133 43.4 56.44C43.0267 56.0133 42.7867 55.64 42.68 55.32L39.56 47.16H18.2L15.16 55.32C15.0533 55.64 14.8133 56.0133 14.44 56.44C14.0667 56.8133 13.4267 57 12.52 57H2.68ZM21.48 35.64H36.36L28.84 14.52L21.48 35.64ZM73.1456 57C72.559 57 72.079 56.8133 71.7056 56.44C71.3323 56.0667 71.1456 55.5867 71.1456 55V3C71.1456 2.41333 71.3323 1.93333 71.7056 1.56C72.079 1.18667 72.559 1 73.1456 1H109.866C110.452 1 110.932 1.18667 111.306 1.56C111.732 1.93333 111.946 2.41333 111.946 3V11.08C111.946 11.6667 111.732 12.1467 111.306 12.52C110.932 12.8933 110.452 13.08 109.866 13.08H85.2256V24.84H108.266C108.852 24.84 109.332 25.0533 109.706 25.48C110.132 25.8533 110.346 26.3333 110.346 26.92V34.92C110.346 35.4533 110.132 35.9333 109.706 36.36C109.332 36.7333 108.852 36.92 108.266 36.92H85.2256V55C85.2256 55.5867 85.039 56.0667 84.6656 56.44C84.2923 56.8133 83.8123 57 83.2256 57H73.1456ZM130.521 57C129.934 57 129.454 56.8133 129.081 56.44C128.707 56.0667 128.521 55.5867 128.521 55V3C128.521 2.41333 128.707 1.93333 129.081 1.56C129.454 1.18667 129.934 1 130.521 1H167.241C167.827 1 168.307 1.18667 168.681 1.56C169.107 1.93333 169.321 2.41333 169.321 3V11.08C169.321 11.6667 169.107 12.1467 168.681 12.52C168.307 12.8933 167.827 13.08 167.241 13.08H142.601V24.84H165.641C166.227 24.84 166.707 25.0533 167.081 25.48C167.507 25.8533 167.721 26.3333 167.721 26.92V34.92C167.721 35.4533 167.507 35.9333 167.081 36.36C166.707 36.7333 166.227 36.92 165.641 36.92H142.601V55C142.601 55.5867 142.414 56.0667 142.041 56.44C141.667 56.8133 141.187 57 140.601 57H130.521ZM187.896 57C187.309 57 186.829 56.8133 186.456 56.44C186.082 56.0667 185.896 55.5867 185.896 55V3C185.896 2.41333 186.082 1.93333 186.456 1.56C186.829 1.18667 187.309 1 187.896 1H198.616C199.202 1 199.682 1.18667 200.056 1.56C200.429 1.93333 200.616 2.41333 200.616 3V55C200.616 55.5867 200.429 56.0667 200.056 56.44C199.682 56.8133 199.202 57 198.616 57H187.896ZM221.833 57C221.246 57 220.766 56.8133 220.393 56.44C220.02 56.0667 219.833 55.5867 219.833 55V3C219.833 2.41333 220.02 1.93333 220.393 1.56C220.766 1.18667 221.246 1 221.833 1H232.393C232.926 1 233.38 1.18667 233.753 1.56C234.18 1.93333 234.393 2.41333 234.393 3V44.92H258.553C259.14 44.92 259.62 45.1333 259.993 45.56C260.42 45.9333 260.633 46.4133 260.633 47V55C260.633 55.5867 260.42 56.0667 259.993 56.44C259.62 56.8133 259.14 57 258.553 57H221.833ZM277.568 57C276.981 57 276.501 56.8133 276.128 56.44C275.754 56.0667 275.568 55.5867 275.568 55V3C275.568 2.41333 275.754 1.93333 276.128 1.56C276.501 1.18667 276.981 1 277.568 1H288.288C288.874 1 289.354 1.18667 289.728 1.56C290.101 1.93333 290.288 2.41333 290.288 3V55C290.288 55.5867 290.101 56.0667 289.728 56.44C289.354 56.8133 288.874 57 288.288 57H277.568ZM306.305 57C305.878 57 305.478 56.84 305.105 56.52C304.785 56.1467 304.625 55.7467 304.625 55.32C304.625 55.0533 304.652 54.8133 304.705 54.6L323.505 3.24C323.665 2.65333 323.985 2.14667 324.465 1.72C324.998 1.24 325.718 1 326.625 1H338.465C339.372 1 340.065 1.24 340.545 1.72C341.078 2.14667 341.425 2.65333 341.585 3.24L360.305 54.6C360.412 54.8133 360.465 55.0533 360.465 55.32C360.465 55.7467 360.278 56.1467 359.905 56.52C359.585 56.84 359.185 57 358.705 57H348.865C348.065 57 347.452 56.8133 347.025 56.44C346.652 56.0133 346.412 55.64 346.305 55.32L343.185 47.16H321.825L318.785 55.32C318.678 55.64 318.438 56.0133 318.065 56.44C317.692 56.8133 317.052 57 316.145 57H306.305ZM325.105 35.64H339.985L332.465 14.52L325.105 35.64ZM383.388 57C382.801 57 382.321 56.8133 381.948 56.44C381.574 56.0667 381.388 55.5867 381.388 55V13.56H367.147C366.561 13.56 366.081 13.3733 365.707 13C365.334 12.5733 365.147 12.0933 365.147 11.56V3C365.147 2.41333 365.334 1.93333 365.707 1.56C366.081 1.18667 366.561 1 367.147 1H410.188C410.774 1 411.254 1.18667 411.628 1.56C412.001 1.93333 412.188 2.41333 412.188 3V11.56C412.188 12.0933 412.001 12.5733 411.628 13C411.254 13.3733 410.774 13.56 410.188 13.56H395.948V55C395.948 55.5867 395.761 56.0667 395.388 56.44C395.014 56.8133 394.534 57 393.948 57H383.388ZM429.458 57C428.871 57 428.391 56.8133 428.018 56.44C427.645 56.0667 427.458 55.5867 427.458 55V3C427.458 2.41333 427.645 1.93333 428.018 1.56C428.391 1.18667 428.871 1 429.458 1H466.818C467.405 1 467.885 1.18667 468.258 1.56C468.631 1.93333 468.818 2.41333 468.818 3V10.52C468.818 11.1067 468.631 11.5867 468.258 11.96C467.885 12.3333 467.405 12.52 466.818 12.52H441.298V23.32H465.058C465.645 23.32 466.125 23.5333 466.498 23.96C466.871 24.3333 467.058 24.8133 467.058 25.4V32.36C467.058 32.8933 466.871 33.3733 466.498 33.8C466.125 34.1733 465.645 34.36 465.058 34.36H441.298V45.48H467.458C468.045 45.48 468.525 45.6667 468.898 46.04C469.271 46.4133 469.458 46.8933 469.458 47.48V55C469.458 55.5867 469.271 56.0667 468.898 56.44C468.525 56.8133 468.045 57 467.458 57H429.458Z"/>
</mask>
<path d="M2.68 57C2.25333 57 1.85333 56.84 1.48 56.52C1.16 56.1467 1 55.7467 1 55.32C1 55.0533 1.02667 54.8133 1.08 54.6L19.88 3.24C20.04 2.65333 20.36 2.14667 20.84 1.72C21.3733 1.24 22.0933 1 23 1H34.84C35.7467 1 36.44 1.24 36.92 1.72C37.4533 2.14667 37.8 2.65333 37.96 3.24L56.68 54.6C56.7867 54.8133 56.84 55.0533 56.84 55.32C56.84 55.7467 56.6533 56.1467 56.28 56.52C55.96 56.84 55.56 57 55.08 57H45.24C44.44 57 43.8267 56.8133 43.4 56.44C43.0267 56.0133 42.7867 55.64 42.68 55.32L39.56 47.16H18.2L15.16 55.32C15.0533 55.64 14.8133 56.0133 14.44 56.44C14.0667 56.8133 13.4267 57 12.52 57H2.68ZM21.48 35.64H36.36L28.84 14.52L21.48 35.64ZM73.1456 57C72.559 57 72.079 56.8133 71.7056 56.44C71.3323 56.0667 71.1456 55.5867 71.1456 55V3C71.1456 2.41333 71.3323 1.93333 71.7056 1.56C72.079 1.18667 72.559 1 73.1456 1H109.866C110.452 1 110.932 1.18667 111.306 1.56C111.732 1.93333 111.946 2.41333 111.946 3V11.08C111.946 11.6667 111.732 12.1467 111.306 12.52C110.932 12.8933 110.452 13.08 109.866 13.08H85.2256V24.84H108.266C108.852 24.84 109.332 25.0533 109.706 25.48C110.132 25.8533 110.346 26.3333 110.346 26.92V34.92C110.346 35.4533 110.132 35.9333 109.706 36.36C109.332 36.7333 108.852 36.92 108.266 36.92H85.2256V55C85.2256 55.5867 85.039 56.0667 84.6656 56.44C84.2923 56.8133 83.8123 57 83.2256 57H73.1456ZM130.521 57C129.934 57 129.454 56.8133 129.081 56.44C128.707 56.0667 128.521 55.5867 128.521 55V3C128.521 2.41333 128.707 1.93333 129.081 1.56C129.454 1.18667 129.934 1 130.521 1H167.241C167.827 1 168.307 1.18667 168.681 1.56C169.107 1.93333 169.321 2.41333 169.321 3V11.08C169.321 11.6667 169.107 12.1467 168.681 12.52C168.307 12.8933 167.827 13.08 167.241 13.08H142.601V24.84H165.641C166.227 24.84 166.707 25.0533 167.081 25.48C167.507 25.8533 167.721 26.3333 167.721 26.92V34.92C167.721 35.4533 167.507 35.9333 167.081 36.36C166.707 36.7333 166.227 36.92 165.641 36.92H142.601V55C142.601 55.5867 142.414 56.0667 142.041 56.44C141.667 56.8133 141.187 57 140.601 57H130.521ZM187.896 57C187.309 57 186.829 56.8133 186.456 56.44C186.082 56.0667 185.896 55.5867 185.896 55V3C185.896 2.41333 186.082 1.93333 186.456 1.56C186.829 1.18667 187.309 1 187.896 1H198.616C199.202 1 199.682 1.18667 200.056 1.56C200.429 1.93333 200.616 2.41333 200.616 3V55C200.616 55.5867 200.429 56.0667 200.056 56.44C199.682 56.8133 199.202 57 198.616 57H187.896ZM221.833 57C221.246 57 220.766 56.8133 220.393 56.44C220.02 56.0667 219.833 55.5867 219.833 55V3C219.833 2.41333 220.02 1.93333 220.393 1.56C220.766 1.18667 221.246 1 221.833 1H232.393C232.926 1 233.38 1.18667 233.753 1.56C234.18 1.93333 234.393 2.41333 234.393 3V44.92H258.553C259.14 44.92 259.62 45.1333 259.993 45.56C260.42 45.9333 260.633 46.4133 260.633 47V55C260.633 55.5867 260.42 56.0667 259.993 56.44C259.62 56.8133 259.14 57 258.553 57H221.833ZM277.568 57C276.981 57 276.501 56.8133 276.128 56.44C275.754 56.0667 275.568 55.5867 275.568 55V3C275.568 2.41333 275.754 1.93333 276.128 1.56C276.501 1.18667 276.981 1 277.568 1H288.288C288.874 1 289.354 1.18667 289.728 1.56C290.101 1.93333 290.288 2.41333 290.288 3V55C290.288 55.5867 290.101 56.0667 289.728 56.44C289.354 56.8133 288.874 57 288.288 57H277.568ZM306.305 57C305.878 57 305.478 56.84 305.105 56.52C304.785 56.1467 304.625 55.7467 304.625 55.32C304.625 55.0533 304.652 54.8133 304.705 54.6L323.505 3.24C323.665 2.65333 323.985 2.14667 324.465 1.72C324.998 1.24 325.718 1 326.625 1H338.465C339.372 1 340.065 1.24 340.545 1.72C341.078 2.14667 341.425 2.65333 341.585 3.24L360.305 54.6C360.412 54.8133 360.465 55.0533 360.465 55.32C360.465 55.7467 360.278 56.1467 359.905 56.52C359.585 56.84 359.185 57 358.705 57H348.865C348.065 57 347.452 56.8133 347.025 56.44C346.652 56.0133 346.412 55.64 346.305 55.32L343.185 47.16H321.825L318.785 55.32C318.678 55.64 318.438 56.0133 318.065 56.44C317.692 56.8133 317.052 57 316.145 57H306.305ZM325.105 35.64H339.985L332.465 14.52L325.105 35.64ZM383.388 57C382.801 57 382.321 56.8133 381.948 56.44C381.574 56.0667 381.388 55.5867 381.388 55V13.56H367.147C366.561 13.56 366.081 13.3733 365.707 13C365.334 12.5733 365.147 12.0933 365.147 11.56V3C365.147 2.41333 365.334 1.93333 365.707 1.56C366.081 1.18667 366.561 1 367.147 1H410.188C410.774 1 411.254 1.18667 411.628 1.56C412.001 1.93333 412.188 2.41333 412.188 3V11.56C412.188 12.0933 412.001 12.5733 411.628 13C411.254 13.3733 410.774 13.56 410.188 13.56H395.948V55C395.948 55.5867 395.761 56.0667 395.388 56.44C395.014 56.8133 394.534 57 393.948 57H383.388ZM429.458 57C428.871 57 428.391 56.8133 428.018 56.44C427.645 56.0667 427.458 55.5867 427.458 55V3C427.458 2.41333 427.645 1.93333 428.018 1.56C428.391 1.18667 428.871 1 429.458 1H466.818C467.405 1 467.885 1.18667 468.258 1.56C468.631 1.93333 468.818 2.41333 468.818 3V10.52C468.818 11.1067 468.631 11.5867 468.258 11.96C467.885 12.3333 467.405 12.52 466.818 12.52H441.298V23.32H465.058C465.645 23.32 466.125 23.5333 466.498 23.96C466.871 24.3333 467.058 24.8133 467.058 25.4V32.36C467.058 32.8933 466.871 33.3733 466.498 33.8C466.125 34.1733 465.645 34.36 465.058 34.36H441.298V45.48H467.458C468.045 45.48 468.525 45.6667 468.898 46.04C469.271 46.4133 469.458 46.8933 469.458 47.48V55C469.458 55.5867 469.271 56.0667 468.898 56.44C468.525 56.8133 468.045 57 467.458 57H429.458Z" stroke="url(#paint0_linear_137_93)" stroke-opacity="0.2" stroke-width="2" mask="url(#path-1-outside-1_137_93)"/>
<defs>
<linearGradient id="paint0_linear_137_93" x1="236.616" y1="-5" x2="236.616" y2="65" gradientUnits="userSpaceOnUse">
<stop stop-color="#C1FFF8"/>
<stop offset="1" stop-color="#C1FFF8" stop-opacity="0"/>
</linearGradient>
</defs>
</svg>
