<svg width="446" height="60" viewBox="0 0 446 60" fill="none" xmlns="http://www.w3.org/2000/svg">
<mask id="path-1-outside-1_141_87" maskUnits="userSpaceOnUse" x="0" y="0" width="446" height="60" fill="black">
<rect fill="white" width="446" height="60"/>
<path d="M3 57.8C2.41333 57.8 1.93333 57.6133 1.56 57.24C1.18667 56.8667 1 56.3867 1 55.8V3.8C1 3.21333 1.18667 2.73333 1.56 2.36C1.93333 1.98667 2.41333 1.8 3 1.8H24.76C31.64 1.8 37.0533 3.4 41 6.6C45 9.74667 47 14.2267 47 20.04C47 23.8267 46.0667 27.0267 44.2 29.64C42.3867 32.2533 39.9867 34.2267 37 35.56L48.04 55.24C48.2 55.56 48.28 55.8533 48.28 56.12C48.28 56.5467 48.0933 56.9467 47.72 57.32C47.4 57.64 47 57.8 46.52 57.8H35.96C34.9467 57.8 34.2 57.56 33.72 57.08C33.24 56.5467 32.8933 56.0667 32.68 55.64L23.56 38.04H15.32V55.8C15.32 56.3867 15.1333 56.8667 14.76 57.24C14.3867 57.6133 13.9067 57.8 13.32 57.8H3ZM15.32 26.76H24.6C27.1067 26.76 28.9733 26.1467 30.2 24.92C31.48 23.6933 32.12 22.0133 32.12 19.88C32.12 17.8 31.5067 16.12 30.28 14.84C29.1067 13.56 27.2133 12.92 24.6 12.92H15.32V26.76ZM86.9581 58.6C82.0515 58.6 77.7848 57.8 74.1581 56.2C70.5315 54.6 67.7048 52.2 65.6781 49C63.6515 45.7467 62.5315 41.6933 62.3181 36.84C62.2648 34.5467 62.2381 32.2533 62.2381 29.96C62.2381 27.6667 62.2648 25.3467 62.3181 23C62.5315 18.2 63.6515 14.1733 65.6781 10.92C67.7581 7.61334 70.6115 5.13334 74.2381 3.48C77.8648 1.82667 82.1048 1 86.9581 1C91.7581 1 95.9715 1.82667 99.5981 3.48C103.278 5.13334 106.158 7.61334 108.238 10.92C110.318 14.1733 111.438 18.2 111.598 23C111.705 25.3467 111.758 27.6667 111.758 29.96C111.758 32.2533 111.705 34.5467 111.598 36.84C111.385 41.6933 110.265 45.7467 108.238 49C106.211 52.2 103.385 54.6 99.7581 56.2C96.1315 57.8 91.8648 58.6 86.9581 58.6ZM86.9581 47.08C89.7848 47.08 92.0781 46.2267 93.8381 44.52C95.6515 42.8133 96.6115 40.0933 96.7181 36.36C96.8248 34.0133 96.8781 31.8 96.8781 29.72C96.8781 27.64 96.8248 25.48 96.7181 23.24C96.6115 20.7333 96.1315 18.7067 95.2781 17.16C94.4781 15.56 93.3581 14.3867 91.9181 13.64C90.4781 12.8933 88.8248 12.52 86.9581 12.52C85.1448 12.52 83.5181 12.8933 82.0781 13.64C80.6381 14.3867 79.4915 15.56 78.6381 17.16C77.7848 18.7067 77.3048 20.7333 77.1981 23.24C77.1448 25.48 77.1181 27.64 77.1181 29.72C77.1181 31.8 77.1448 34.0133 77.1981 36.36C77.3581 40.0933 78.3181 42.8133 80.0781 44.52C81.8381 46.2267 84.1315 47.08 86.9581 47.08ZM124.659 57.8C124.233 57.8 123.833 57.64 123.459 57.32C123.139 56.9467 122.979 56.5467 122.979 56.12C122.979 55.8533 123.006 55.6133 123.059 55.4L141.859 4.04C142.019 3.45333 142.339 2.94667 142.819 2.52C143.353 2.04 144.073 1.8 144.979 1.8H156.819C157.726 1.8 158.419 2.04 158.899 2.52C159.433 2.94667 159.779 3.45333 159.939 4.04L178.659 55.4C178.766 55.6133 178.819 55.8533 178.819 56.12C178.819 56.5467 178.633 56.9467 178.259 57.32C177.939 57.64 177.539 57.8 177.059 57.8H167.219C166.419 57.8 165.806 57.6133 165.379 57.24C165.006 56.8133 164.766 56.44 164.659 56.12L161.539 47.96H140.179L137.139 56.12C137.033 56.44 136.793 56.8133 136.419 57.24C136.046 57.6133 135.406 57.8 134.499 57.8H124.659ZM143.459 36.44H158.339L150.819 15.32L143.459 36.44ZM195.125 57.8C194.538 57.8 194.058 57.6133 193.685 57.24C193.312 56.8667 193.125 56.3867 193.125 55.8V3.8C193.125 3.21333 193.312 2.73333 193.685 2.36C194.058 1.98667 194.538 1.8 195.125 1.8H215.925C221.152 1.8 225.605 2.65333 229.285 4.36C232.965 6.01333 235.792 8.46667 237.765 11.72C239.738 14.92 240.805 18.8933 240.965 23.64C241.018 25.9867 241.045 28.04 241.045 29.8C241.045 31.56 241.018 33.5867 240.965 35.88C240.752 40.84 239.685 44.9467 237.765 48.2C235.898 51.4533 233.152 53.88 229.525 55.48C225.952 57.0267 221.552 57.8 216.325 57.8H195.125ZM207.445 46.28H215.925C218.218 46.28 220.112 45.9333 221.605 45.24C223.152 44.4933 224.298 43.3467 225.045 41.8C225.845 40.2533 226.272 38.2267 226.325 35.72C226.432 34.1733 226.485 32.7867 226.485 31.56C226.538 30.3333 226.538 29.1067 226.485 27.88C226.485 26.6533 226.432 25.2933 226.325 23.8C226.218 20.1733 225.258 17.5333 223.445 15.88C221.685 14.1733 219.045 13.32 215.525 13.32H207.445V46.28ZM260.391 57.8C259.857 57.8 259.377 57.6133 258.951 57.24C258.577 56.8667 258.391 56.3867 258.391 55.8V3.8C258.391 3.21333 258.577 2.73333 258.951 2.36C259.377 1.98667 259.857 1.8 260.391 1.8H269.031C269.884 1.8 270.524 2.04 270.951 2.52C271.431 2.94667 271.724 3.29333 271.831 3.56L285.911 28.84L299.991 3.56C300.151 3.29333 300.417 2.94667 300.791 2.52C301.217 2.04 301.884 1.8 302.791 1.8H311.351C311.937 1.8 312.417 1.98667 312.791 2.36C313.217 2.73333 313.431 3.21333 313.431 3.8V55.8C313.431 56.3867 313.217 56.8667 312.791 57.24C312.417 57.6133 311.937 57.8 311.351 57.8H301.831C301.244 57.8 300.737 57.6133 300.311 57.24C299.937 56.8667 299.751 56.3867 299.751 55.8V25.8L290.711 42.52C290.497 43 290.177 43.4267 289.751 43.8C289.324 44.1733 288.737 44.36 287.991 44.36H283.831C283.084 44.36 282.497 44.1733 282.071 43.8C281.644 43.4267 281.297 43 281.031 42.52L271.991 25.8V55.8C271.991 56.3867 271.804 56.8667 271.431 57.24C271.057 57.6133 270.577 57.8 269.991 57.8H260.391ZM329.362 57.8C328.936 57.8 328.536 57.64 328.163 57.32C327.843 56.9467 327.682 56.5467 327.682 56.12C327.682 55.8533 327.709 55.6133 327.763 55.4L346.562 4.04C346.723 3.45333 347.042 2.94667 347.522 2.52C348.056 2.04 348.776 1.8 349.682 1.8H361.522C362.429 1.8 363.123 2.04 363.603 2.52C364.136 2.94667 364.482 3.45333 364.642 4.04L383.363 55.4C383.469 55.6133 383.522 55.8533 383.522 56.12C383.522 56.5467 383.336 56.9467 382.962 57.32C382.642 57.64 382.243 57.8 381.763 57.8H371.923C371.123 57.8 370.509 57.6133 370.082 57.24C369.709 56.8133 369.469 56.44 369.362 56.12L366.242 47.96H344.883L341.842 56.12C341.736 56.44 341.496 56.8133 341.122 57.24C340.749 57.6133 340.109 57.8 339.203 57.8H329.362ZM348.163 36.44H363.043L355.522 15.32L348.163 36.44ZM399.828 57.8C399.241 57.8 398.761 57.6133 398.388 57.24C398.015 56.8667 397.828 56.3867 397.828 55.8V3.8C397.828 3.21333 398.015 2.73333 398.388 2.36C398.761 1.98667 399.241 1.8 399.828 1.8H422.228C426.655 1.8 430.495 2.49333 433.748 3.88C437.055 5.21333 439.615 7.24 441.428 9.96C443.295 12.68 444.228 16.12 444.228 20.28C444.228 24.3867 443.295 27.7733 441.428 30.44C439.615 33.1067 437.055 35.08 433.748 36.36C430.495 37.64 426.655 38.28 422.228 38.28H412.708V55.8C412.708 56.3867 412.495 56.8667 412.068 57.24C411.695 57.6133 411.215 57.8 410.628 57.8H399.828ZM412.468 27.24H421.828C424.121 27.24 425.935 26.6533 427.268 25.48C428.655 24.3067 429.348 22.52 429.348 20.12C429.348 18.0933 428.761 16.3867 427.588 15C426.415 13.6133 424.495 12.92 421.828 12.92H412.468V27.24Z"/>
</mask>
<path d="M3 57.8C2.41333 57.8 1.93333 57.6133 1.56 57.24C1.18667 56.8667 1 56.3867 1 55.8V3.8C1 3.21333 1.18667 2.73333 1.56 2.36C1.93333 1.98667 2.41333 1.8 3 1.8H24.76C31.64 1.8 37.0533 3.4 41 6.6C45 9.74667 47 14.2267 47 20.04C47 23.8267 46.0667 27.0267 44.2 29.64C42.3867 32.2533 39.9867 34.2267 37 35.56L48.04 55.24C48.2 55.56 48.28 55.8533 48.28 56.12C48.28 56.5467 48.0933 56.9467 47.72 57.32C47.4 57.64 47 57.8 46.52 57.8H35.96C34.9467 57.8 34.2 57.56 33.72 57.08C33.24 56.5467 32.8933 56.0667 32.68 55.64L23.56 38.04H15.32V55.8C15.32 56.3867 15.1333 56.8667 14.76 57.24C14.3867 57.6133 13.9067 57.8 13.32 57.8H3ZM15.32 26.76H24.6C27.1067 26.76 28.9733 26.1467 30.2 24.92C31.48 23.6933 32.12 22.0133 32.12 19.88C32.12 17.8 31.5067 16.12 30.28 14.84C29.1067 13.56 27.2133 12.92 24.6 12.92H15.32V26.76ZM86.9581 58.6C82.0515 58.6 77.7848 57.8 74.1581 56.2C70.5315 54.6 67.7048 52.2 65.6781 49C63.6515 45.7467 62.5315 41.6933 62.3181 36.84C62.2648 34.5467 62.2381 32.2533 62.2381 29.96C62.2381 27.6667 62.2648 25.3467 62.3181 23C62.5315 18.2 63.6515 14.1733 65.6781 10.92C67.7581 7.61334 70.6115 5.13334 74.2381 3.48C77.8648 1.82667 82.1048 1 86.9581 1C91.7581 1 95.9715 1.82667 99.5981 3.48C103.278 5.13334 106.158 7.61334 108.238 10.92C110.318 14.1733 111.438 18.2 111.598 23C111.705 25.3467 111.758 27.6667 111.758 29.96C111.758 32.2533 111.705 34.5467 111.598 36.84C111.385 41.6933 110.265 45.7467 108.238 49C106.211 52.2 103.385 54.6 99.7581 56.2C96.1315 57.8 91.8648 58.6 86.9581 58.6ZM86.9581 47.08C89.7848 47.08 92.0781 46.2267 93.8381 44.52C95.6515 42.8133 96.6115 40.0933 96.7181 36.36C96.8248 34.0133 96.8781 31.8 96.8781 29.72C96.8781 27.64 96.8248 25.48 96.7181 23.24C96.6115 20.7333 96.1315 18.7067 95.2781 17.16C94.4781 15.56 93.3581 14.3867 91.9181 13.64C90.4781 12.8933 88.8248 12.52 86.9581 12.52C85.1448 12.52 83.5181 12.8933 82.0781 13.64C80.6381 14.3867 79.4915 15.56 78.6381 17.16C77.7848 18.7067 77.3048 20.7333 77.1981 23.24C77.1448 25.48 77.1181 27.64 77.1181 29.72C77.1181 31.8 77.1448 34.0133 77.1981 36.36C77.3581 40.0933 78.3181 42.8133 80.0781 44.52C81.8381 46.2267 84.1315 47.08 86.9581 47.08ZM124.659 57.8C124.233 57.8 123.833 57.64 123.459 57.32C123.139 56.9467 122.979 56.5467 122.979 56.12C122.979 55.8533 123.006 55.6133 123.059 55.4L141.859 4.04C142.019 3.45333 142.339 2.94667 142.819 2.52C143.353 2.04 144.073 1.8 144.979 1.8H156.819C157.726 1.8 158.419 2.04 158.899 2.52C159.433 2.94667 159.779 3.45333 159.939 4.04L178.659 55.4C178.766 55.6133 178.819 55.8533 178.819 56.12C178.819 56.5467 178.633 56.9467 178.259 57.32C177.939 57.64 177.539 57.8 177.059 57.8H167.219C166.419 57.8 165.806 57.6133 165.379 57.24C165.006 56.8133 164.766 56.44 164.659 56.12L161.539 47.96H140.179L137.139 56.12C137.033 56.44 136.793 56.8133 136.419 57.24C136.046 57.6133 135.406 57.8 134.499 57.8H124.659ZM143.459 36.44H158.339L150.819 15.32L143.459 36.44ZM195.125 57.8C194.538 57.8 194.058 57.6133 193.685 57.24C193.312 56.8667 193.125 56.3867 193.125 55.8V3.8C193.125 3.21333 193.312 2.73333 193.685 2.36C194.058 1.98667 194.538 1.8 195.125 1.8H215.925C221.152 1.8 225.605 2.65333 229.285 4.36C232.965 6.01333 235.792 8.46667 237.765 11.72C239.738 14.92 240.805 18.8933 240.965 23.64C241.018 25.9867 241.045 28.04 241.045 29.8C241.045 31.56 241.018 33.5867 240.965 35.88C240.752 40.84 239.685 44.9467 237.765 48.2C235.898 51.4533 233.152 53.88 229.525 55.48C225.952 57.0267 221.552 57.8 216.325 57.8H195.125ZM207.445 46.28H215.925C218.218 46.28 220.112 45.9333 221.605 45.24C223.152 44.4933 224.298 43.3467 225.045 41.8C225.845 40.2533 226.272 38.2267 226.325 35.72C226.432 34.1733 226.485 32.7867 226.485 31.56C226.538 30.3333 226.538 29.1067 226.485 27.88C226.485 26.6533 226.432 25.2933 226.325 23.8C226.218 20.1733 225.258 17.5333 223.445 15.88C221.685 14.1733 219.045 13.32 215.525 13.32H207.445V46.28ZM260.391 57.8C259.857 57.8 259.377 57.6133 258.951 57.24C258.577 56.8667 258.391 56.3867 258.391 55.8V3.8C258.391 3.21333 258.577 2.73333 258.951 2.36C259.377 1.98667 259.857 1.8 260.391 1.8H269.031C269.884 1.8 270.524 2.04 270.951 2.52C271.431 2.94667 271.724 3.29333 271.831 3.56L285.911 28.84L299.991 3.56C300.151 3.29333 300.417 2.94667 300.791 2.52C301.217 2.04 301.884 1.8 302.791 1.8H311.351C311.937 1.8 312.417 1.98667 312.791 2.36C313.217 2.73333 313.431 3.21333 313.431 3.8V55.8C313.431 56.3867 313.217 56.8667 312.791 57.24C312.417 57.6133 311.937 57.8 311.351 57.8H301.831C301.244 57.8 300.737 57.6133 300.311 57.24C299.937 56.8667 299.751 56.3867 299.751 55.8V25.8L290.711 42.52C290.497 43 290.177 43.4267 289.751 43.8C289.324 44.1733 288.737 44.36 287.991 44.36H283.831C283.084 44.36 282.497 44.1733 282.071 43.8C281.644 43.4267 281.297 43 281.031 42.52L271.991 25.8V55.8C271.991 56.3867 271.804 56.8667 271.431 57.24C271.057 57.6133 270.577 57.8 269.991 57.8H260.391ZM329.362 57.8C328.936 57.8 328.536 57.64 328.163 57.32C327.843 56.9467 327.682 56.5467 327.682 56.12C327.682 55.8533 327.709 55.6133 327.763 55.4L346.562 4.04C346.723 3.45333 347.042 2.94667 347.522 2.52C348.056 2.04 348.776 1.8 349.682 1.8H361.522C362.429 1.8 363.123 2.04 363.603 2.52C364.136 2.94667 364.482 3.45333 364.642 4.04L383.363 55.4C383.469 55.6133 383.522 55.8533 383.522 56.12C383.522 56.5467 383.336 56.9467 382.962 57.32C382.642 57.64 382.243 57.8 381.763 57.8H371.923C371.123 57.8 370.509 57.6133 370.082 57.24C369.709 56.8133 369.469 56.44 369.362 56.12L366.242 47.96H344.883L341.842 56.12C341.736 56.44 341.496 56.8133 341.122 57.24C340.749 57.6133 340.109 57.8 339.203 57.8H329.362ZM348.163 36.44H363.043L355.522 15.32L348.163 36.44ZM399.828 57.8C399.241 57.8 398.761 57.6133 398.388 57.24C398.015 56.8667 397.828 56.3867 397.828 55.8V3.8C397.828 3.21333 398.015 2.73333 398.388 2.36C398.761 1.98667 399.241 1.8 399.828 1.8H422.228C426.655 1.8 430.495 2.49333 433.748 3.88C437.055 5.21333 439.615 7.24 441.428 9.96C443.295 12.68 444.228 16.12 444.228 20.28C444.228 24.3867 443.295 27.7733 441.428 30.44C439.615 33.1067 437.055 35.08 433.748 36.36C430.495 37.64 426.655 38.28 422.228 38.28H412.708V55.8C412.708 56.3867 412.495 56.8667 412.068 57.24C411.695 57.6133 411.215 57.8 410.628 57.8H399.828ZM412.468 27.24H421.828C424.121 27.24 425.935 26.6533 427.268 25.48C428.655 24.3067 429.348 22.52 429.348 20.12C429.348 18.0933 428.761 16.3867 427.588 15C426.415 13.6133 424.495 12.92 421.828 12.92H412.468V27.24Z" stroke="url(#paint0_linear_141_87)" stroke-opacity="0.2" stroke-width="2" mask="url(#path-1-outside-1_141_87)"/>
<defs>
<linearGradient id="paint0_linear_141_87" x1="220.845" y1="-4.19995" x2="220.845" y2="65.8" gradientUnits="userSpaceOnUse">
<stop stop-color="#C1FFF8"/>
<stop offset="1" stop-color="#C1FFF8" stop-opacity="0"/>
</linearGradient>
</defs>
</svg>
